<?xml version="1.0" encoding="UTF-8" standalone="no"?>
<svg
   xmlns:dc="http://purl.org/dc/elements/1.1/"
   xmlns:cc="http://creativecommons.org/ns#"
   xmlns:rdf="http://www.w3.org/1999/02/22-rdf-syntax-ns#"
   xmlns:svg="http://www.w3.org/2000/svg"
   xmlns="http://www.w3.org/2000/svg"
   xml:space="preserve"
   style="enable-background:new 0 0 41.3 48.1;"
   viewBox="0 0 41.3 48.1"
   y="0px"
   x="0px"
   id="Layer_1"
   version="1.1"><metadata
   id="metadata11"><rdf:RDF><cc:Work
       rdf:about=""><dc:format>image/svg+xml</dc:format><dc:type
         rdf:resource="http://purl.org/dc/dcmitype/StillImage" /><dc:title></dc:title></cc:Work></rdf:RDF></metadata><defs
   id="defs9" />
<style
   id="style2"
   type="text/css">
	.st0{fill:#FFFFFF;}
</style>
<path
   style="fill:#ffffff"
   id="path4"
   d="m 111.41186,27.504661 c 0,1.5 -0.4,3.1 -1.1,4.8 -0.7,1.7 -1.9,3.4 -3.4,5.1 -1.6,1.7 -3.6,3 -6,4 -2.399998,1 -5.299998,1.6 -8.499998,1.6 -2.4,0 -4.7,-0.2 -6.7,-0.7 -2,-0.5 -3.8,-1.2 -5.5,-2.2 -1.6,-1 -3.1,-2.3 -4.5,-3.9 -1.2,-1.5 -2.3,-3.1 -3.1,-4.9 -0.8,-1.8 -1.5,-3.7 -1.9,-5.8 -0.4,-2 -0.6,-4.2 -0.6,-6.5 0,-3.7 0.5,-7.1 1.6,-9.9999998 1.1,-3 2.6,-5.5 4.7,-7.6 2,-2.10000002 4.4,-3.7 7.1,-4.8 2.7,-1.2 5.6,-1.7 8.6,-1.7 3.8,0 7.1,0.7 9.999998,2.2 2.9,1.5 5.2,3.39999998 6.7,5.6 1.6,2.2 2.3,4.3 2.3,6.3 0,1.0999998 -0.4,1.9999998 -1.1,2.8999998 -0.8,0.8 -1.7,1.2 -2.8,1.2 -1.2,0 -2.1,-0.3 -2.7,-0.9 -0.6,-0.6 -1.3,-1.6 -2,-2.8999998 -1.2,-2.3 -2.699998,-4 -4.299998,-5.2 -1.7,-1.1 -3.7,-1.7 -6.1,-1.7 -3.9,0 -6.9,1.5 -9.2,4.4 -2.3,2.9 -3.4,7.0999998 -3.4,12.4999998 0,3.6 0.5,6.6 1.5,9 1,2.4 2.4,4.2 4.3,5.4 1.9,1.2 4,1.8 6.5,1.8 2.7,0 5,-0.7 6.9,-2 1.899998,-1.3 3.299998,-3.3 4.199998,-5.9 0.4,-1.2 0.9,-2.2 1.5,-3 0.6,-0.8 1.5,-1.2 2.9,-1.2 1.1,0 2.1,0.4 2.9,1.2 0.8,0.7 1.2,1.7 1.2,2.9 z"
   class="st0" />
<g
   id="flowRoot822"
   style="font-style:normal;font-weight:normal;font-size:40px;line-height:1.25;font-family:sans-serif;letter-spacing:0px;word-spacing:0px;fill:#ffffff;fill-opacity:1;stroke:none"
   transform="matrix(1.6613893,0,0,1.6360403,131.2687,-47.886165)"
   aria-label="X"><path
     id="path830"
     style="fill:#ffffff"
     d="m -77.580078,29.464844 h 4.238281 l 7.246094,10.839843 7.285156,-10.839843 h 4.238281 l -9.375,14.003906 10,15.15625 h -4.238281 L -66.388672,46.222656 -74.650391,58.625 h -4.257812 l 10.410156,-15.566406 z" /></g></svg>