<?xml version="1.0" encoding="UTF-8" standalone="no"?>
<svg
   xmlns:dc="http://purl.org/dc/elements/1.1/"
   xmlns:cc="http://creativecommons.org/ns#"
   xmlns:rdf="http://www.w3.org/1999/02/22-rdf-syntax-ns#"
   xmlns:svg="http://www.w3.org/2000/svg"
   xmlns="http://www.w3.org/2000/svg"
   xml:space="preserve"
   style="enable-background:new 0 0 368.5 48;"
   viewBox="0 0 368.5 48"
   y="0px"
   x="0px"
   id="Layer_1"
   version="1.1"><metadata
   id="metadata21"><rdf:RDF><cc:Work
       rdf:about=""><dc:format>image/svg+xml</dc:format><dc:type
         rdf:resource="http://purl.org/dc/dcmitype/StillImage" /><dc:title></dc:title></cc:Work></rdf:RDF></metadata><defs
   id="defs19" />
<style
   id="style2"
   type="text/css">
	.st0{fill:#FFFFFF;}
</style>






<g
   id="flowRoot4564"
   style="font-style:normal;font-weight:normal;font-size:40px;line-height:1.25;font-family:sans-serif;letter-spacing:0px;word-spacing:0px;fill:#ffffff;fill-opacity:1;stroke:none"
   transform="matrix(2.0290536,0,0,1.6599011,170.57027,-159.62003)"
   aria-label="XANDRIA"><path
     id="path4610"
     style=""
     d="m -82.148437,96.083984 h 4.238281 l 7.246094,10.839846 7.285156,-10.839846 h 4.238281 l -9.375,14.003906 10,15.15625 h -4.238281 l -8.203125,-12.40234 -8.261719,12.40234 h -4.257812 l 10.410156,-15.56641 z" /><path
     id="path4612"
     style=""
     d="m -43.59375,99.970703 -5.351562,14.511717 h 10.722656 z m -2.226562,-3.886719 h 4.472656 l 11.113281,29.160156 h -4.101562 l -2.65625,-7.48047 h -13.144532 l -2.65625,7.48047 h -4.160156 z" /><path
     id="path4614"
     style=""
     d="m -25.976562,96.083984 h 5.3125 L -7.734375,120.47852 V 96.083984 h 3.828125 v 29.160156 h -5.3125 l -12.929687,-24.39453 v 24.39453 h -3.828125 z" /><path
     id="path4616"
     style=""
     d="m 7.890625,99.326172 v 22.675778 h 4.765625 q 6.035156,0 8.828125,-2.73437 2.8125,-2.73438 2.8125,-8.63281 0,-5.85938 -2.8125,-8.57422 -2.792969,-2.734378 -8.828125,-2.734378 z M 3.9453125,96.083984 h 8.1054685 q 8.476563,0 12.441406,3.535157 3.964844,3.515629 3.964844,11.015629 0,7.53906 -3.984375,11.07421 -3.984375,3.53516 -12.421875,3.53516 H 3.9453125 Z" /><path
     id="path4618"
     style=""
     d="m 48.574219,111.57227 q 1.269531,0.42968 2.460937,1.83593 1.210938,1.40625 2.421875,3.86719 l 4.003906,7.96875 h -4.238281 l -3.730469,-7.48047 q -1.445312,-2.92969 -2.8125,-3.88672 -1.347656,-0.95703 -3.691406,-0.95703 h -4.296875 v 12.32422 H 34.746094 V 96.083984 h 8.90625 q 5,0 7.460937,2.089844 2.460938,2.089842 2.460938,6.308592 0,2.75391 -1.289063,4.57031 -1.269531,1.81641 -3.710937,2.51954 z M 38.691406,99.326172 v 10.351558 h 4.960938 q 2.851562,0 4.296875,-1.30859 1.464843,-1.32812 1.464843,-3.88672 0,-2.55859 -1.464843,-3.84765 -1.445313,-1.308598 -4.296875,-1.308598 z" /><path
     id="path4620"
     style=""
     d="m 62.539062,96.083984 h 3.945313 v 29.160156 h -3.945313 z" /><path
     id="path4622"
     style=""
     d="m 84.082031,99.970703 -5.351562,14.511717 h 10.722656 z m -2.226562,-3.886719 h 4.472656 l 11.113281,29.160156 h -4.101562 l -2.65625,-7.48047 H 77.539062 l -2.65625,7.48047 h -4.160156 z" /></g></svg>